<?xml version="1.0" encoding="utf-8"?>
<svg xmlns="http://www.w3.org/2000/svg" xmlns:xlink="http://www.w3.org/1999/xlink">
    <symbol xmlns="http://www.w3.org/2000/svg" id="fb" viewBox="0 0 36.711 36.711">
        <path d="M36.711 34.686a2.025 2.025 0 0 1-2.026 2.025H25.33V22.495h4.771l.715-5.541H25.33v-3.537c0-1.604.445-2.696 2.746-2.696l2.934-.001V5.764c-.508-.067-2.249-.219-4.275-.219-4.23 0-7.127 2.582-7.127 7.323v4.086h-4.784v5.541h4.784v14.216H2.026A2.025 2.025 0 0 1 0 34.686V2.026C0 .907.907 0 2.026 0h32.659c1.119 0 2.026.907 2.026 2.026v32.66z"/>
    </symbol>
    <symbol xmlns="http://www.w3.org/2000/svg" id="inst" viewBox="0 0 36.663 36.664">
        <path d="M32.305 0H4.357A4.352 4.352 0 0 0 0 4.349v27.967c0 2.4 1.95 4.348 4.357 4.348h27.947a4.353 4.353 0 0 0 4.358-4.348V4.349A4.351 4.351 0 0 0 32.305 0m-5.953 5.729c0-.632.513-1.146 1.146-1.146h3.438c.632 0 1.145.514 1.145 1.146v3.438c0 .633-.513 1.146-1.145 1.146h-3.438a1.146 1.146 0 0 1-1.146-1.146V5.729zm-7.978 5.612c3.894 0 7.051 3.149 7.051 7.033 0 3.885-3.157 7.034-7.051 7.034s-7.051-3.148-7.051-7.034c0-3.884 3.157-7.033 7.051-7.033M33.226 32.08c0 .633-.513 1.146-1.146 1.146H4.583a1.147 1.147 0 0 1-1.146-1.146V14.895H8.02c-.597.858-.798 2.462-.798 3.479 0 6.135 5.003 11.127 11.152 11.127s11.153-4.992 11.153-11.127c0-1.018-.145-2.596-.885-3.479h4.583V32.08z"/>
    </symbol>
    <symbol xmlns="http://www.w3.org/2000/svg" id="phone" viewBox="0 0 11 11">
        <path d="M10.758 9.774c-.164.383-.602.633-.953.828-.461.25-.93.398-1.453.398-.727 0-1.383-.297-2.047-.539a7.313 7.313 0 0 1-1.367-.648c-1.328-.82-2.93-2.422-3.75-3.75A7.227 7.227 0 0 1 .54 4.695C.297 4.031 0 3.375 0 2.648c0-.523.148-.992.398-1.453.196-.352.446-.789.829-.953C1.485.125 2.032 0 2.313 0c.055 0 .109 0 .164.023.164.055.336.438.414.594.25.445.492.898.75 1.336.125.203.359.453.359.695 0 .477-1.414 1.172-1.414 1.594 0 .211.195.484.305.672.789 1.422 1.774 2.407 3.195 3.196.188.109.461.305.672.305C7.18 8.415 7.875 7 8.352 7c.242 0 .492.235.695.36.438.258.891.5 1.336.75.156.078.539.25.594.414a.406.406 0 0 1 .023.164c0 .281-.125.828-.242 1.086z"/>
    </symbol>
    <symbol xmlns="http://www.w3.org/2000/svg" id="twitter" viewBox="0 0 37.453 31.21">
        <path d="M36.421.577a15.112 15.112 0 0 1-4.884 1.909A7.575 7.575 0 0 0 25.93 0c-4.24 0-7.682 3.528-7.682 7.879 0 .618.066 1.217.198 1.794-6.385-.329-12.047-3.462-15.839-8.235a8.02 8.02 0 0 0-1.04 3.966c0 2.731 1.356 5.144 3.418 6.557a7.547 7.547 0 0 1-3.481-.981v.096c0 3.819 2.648 7.004 6.167 7.725a7.292 7.292 0 0 1-2.025.277c-.495 0-.979-.047-1.447-.139.979 3.129 3.815 5.408 7.179 5.469a15.172 15.172 0 0 1-9.544 3.375c-.619 0-1.232-.037-1.833-.109a21.388 21.388 0 0 0 11.778 3.537c14.136 0 21.863-12.004 21.863-22.417 0-.343-.006-.685-.021-1.021a15.749 15.749 0 0 0 3.832-4.078 15.04 15.04 0 0 1-4.412 1.24 7.861 7.861 0 0 0 3.38-4.358"/>
    </symbol>
    <symbol xmlns="http://www.w3.org/2000/svg" id="vk" viewBox="0 0 126 72">
        <defs>
            <path id="qa" d="M0 0h126v72H0z"/>
        </defs>
        <clipPath id="qb">
            <use overflow="visible" xlink:href="#qa"/>
        </clipPath>
        <path d="M124.523 64.503a8.35 8.35 0 0 0-.426-.816c-2.172-3.91-6.324-8.711-12.449-14.401l-.129-.134-.066-.063-.066-.066h-.063c-2.781-2.651-4.543-4.434-5.281-5.344-1.348-1.738-1.652-3.5-.914-5.281.523-1.348 2.477-4.19 5.867-8.538a447.262 447.262 0 0 0 4.234-5.539c7.52-9.996 10.777-16.383 9.777-19.164l-.387-.649c-.262-.39-.934-.75-2.02-1.074-1.086-.327-2.477-.383-4.172-.163l-18.772.127c-.301-.105-.738-.099-1.301.034l-.852.195-.323.166-.258.195c-.219.129-.457.354-.719.683a4.443 4.443 0 0 0-.648 1.142c-2.047 5.258-4.367 10.145-6.977 14.663-1.609 2.695-3.086 5.031-4.434 7.009-1.348 1.976-2.477 3.434-3.387 4.366-.914.935-1.738 1.685-2.477 2.246-.742.567-1.305.806-1.695.72-.391-.091-.762-.177-1.109-.263a4.288 4.288 0 0 1-1.465-1.597c-.371-.672-.621-1.52-.75-2.543a28.65 28.65 0 0 1-.23-2.637c-.02-.738-.008-1.785.035-3.129.043-1.349.066-2.263.066-2.738 0-1.653.031-3.446.094-5.379.066-1.935.121-3.465.164-4.594.043-1.13.066-2.324.066-3.587 0-1.258-.078-2.245-.23-2.965a9.987 9.987 0 0 0-.684-2.086c-.305-.672-.75-1.194-1.336-1.562-.586-.371-1.313-.664-2.18-.883-2.305-.521-5.238-.802-8.8-.849-8.082-.086-13.274.438-15.579 1.567-.914.476-1.738 1.129-2.476 1.953-.781.957-.891 1.479-.328 1.565 2.609.392 4.453 1.325 5.543 2.802l.39.784c.305.563.61 1.563.911 2.996.304 1.435.5 3.021.585 4.758.219 3.173.219 5.888 0 8.149-.214 2.257-.421 4.019-.617 5.277-.195 1.262-.488 2.28-.879 3.065-.39.782-.652 1.258-.785 1.435-.129.172-.238.28-.324.323a4.815 4.815 0 0 1-1.762.328c-.605 0-1.344-.304-2.215-.914-.867-.608-1.769-1.444-2.703-2.512-.933-1.062-1.988-2.55-3.164-4.464-1.172-1.911-2.386-4.168-3.648-6.778l-1.043-1.89c-.653-1.215-1.543-2.985-2.672-5.313a100.975 100.975 0 0 1-2.996-6.745c-.348-.91-.871-1.605-1.567-2.087l-.324-.194c-.219-.172-.566-.356-1.043-.556a7.006 7.006 0 0 0-1.5-.422l-17.858.133c-1.824 0-3.063.414-3.715 1.238l-.262.392C.066 5.113 0 5.46 0 5.938c0 .48.129 1.065.391 1.762a215.077 215.077 0 0 0 8.507 17.725c3.063 5.696 5.723 10.278 7.981 13.754a161.747 161.747 0 0 0 6.91 9.84c2.348 3.086 3.902 5.063 4.66 5.935a43.02 43.02 0 0 0 1.793 1.953l1.629 1.565c1.043 1.043 2.574 2.293 4.598 3.746 2.02 1.457 4.258 2.891 6.711 4.305 2.457 1.41 5.312 2.563 8.574 3.453 3.258.892 6.43 1.25 9.516 1.074h7.496c1.52-.129 2.672-.609 3.453-1.433l.258-.324c.176-.262.34-.665.488-1.208.152-.542.23-1.14.23-1.792-.043-1.868.098-3.551.422-5.051.324-1.496.695-2.625 1.109-3.388.414-.762.879-1.401 1.402-1.922.52-.522.891-.836 1.109-.944.215-.11.387-.185.52-.231 1.043-.347 2.27-.007 3.684 1.012 1.41 1.024 2.734 2.281 3.977 3.781 1.238 1.5 2.727 3.184 4.461 5.051 1.742 1.867 3.262 3.258 4.563 4.172l1.305.781c.871.524 2 1 3.391 1.435 1.391.437 2.605.547 3.648.327l16.688-.262c1.648 0 2.934-.272 3.844-.815.914-.544 1.453-1.142 1.629-1.789.176-.653.184-1.392.035-2.22-.158-.824-.31-1.402-.459-1.727zm0 0" clip-path="url(#qb)"/>
    </symbol>
    <symbol xmlns="http://www.w3.org/2000/svg" id="sk" viewBox="0 0 24 24">
        <path d="M18,24c-1.375,0-2.641-0.469-3.656-1.25C13.594,22.906,12.797,23,12,23C5.922,23,1,18.078,1,12
		c0-0.797,0.094-1.594,0.25-2.344C0.469,8.641,0,7.375,0,6c0-3.313,2.688-6,6-6c1.375,0,2.641,0.469,3.656,1.25
		C10.406,1.094,11.203,1,12,1c6.078,0,11,4.922,11,11c0,0.797-0.094,1.594-0.25,2.344C23.531,15.359,24,16.625,24,18
		C24,21.313,21.313,24,18,24z M13.469,10.453l-1.625-0.375c-1.188-0.281-2.078-0.484-2.078-1.391c0-0.828,0.875-1.203,2.25-1.203
		c2.453,0,2.5,1.797,4.016,1.797c1.016,0,1.625-0.797,1.625-1.703c0-1.797-2.984-2.969-5.938-2.969
		c-2.703,0-5.844,1.172-5.844,4.344c0,2.625,1.75,3.563,4.031,4.109l2.281,0.563c1.391,0.344,2.25,0.5,2.25,1.5
		c0,0.797-0.891,1.406-2.266,1.406c-2.891,0-3.047-2.406-4.719-2.406c-1.094,0-1.578,0.781-1.578,1.641
		c0,1.922,2.938,3.484,6.453,3.484c2.938,0,6-1.469,6-4.641C18.328,11.891,15.688,10.953,13.469,10.453z"/>
    </symbol>
        <symbol xmlns="http://www.w3.org/2000/svg" id="git" viewBox="0 0 26 22">
        <path d="M25.047,17.422C22.984,21.594,17.313,22,13.25,22c-4.125,0-10.141-0.359-12.281-4.578
		C0.172,15.844,0,13.984,0,12.25c0-2.281,0.625-4.438,2.125-6.188C1.844,5.203,1.703,4.297,1.703,3.406
		C1.703,2.234,1.969,1.063,2.5,0c2.469,0,4.047,1.078,5.922,2.547C10,2.172,11.625,2,13.25,2c1.469,0,2.953,0.156,4.375,0.5
		C19.484,1.047,21.063,0,23.5,0c0.531,1.063,0.797,2.234,0.797,3.406c0,0.891-0.141,1.781-0.422,2.625
		C25.375,7.797,26,9.969,26,12.25C26,13.984,25.828,15.828,25.047,17.422z M18.5,10.5c-1.031,0-2.016,0.188-3.047,0.328
		C14.641,10.953,13.828,11,13,11s-1.641-0.047-2.453-0.172C9.531,10.688,8.531,10.5,7.5,10.5c-2.547,0-4,2.109-4,4.5
		c0,4.781,4.375,5.516,8.188,5.516h2.625c3.813,0,8.188-0.734,8.188-5.516C22.5,12.609,21.047,10.5,18.5,10.5z M8,18
		c-1.406,0-2-1.859-2-3s0.594-3,2-3s2,1.859,2,3S9.406,18,8,18z M18,18c-1.406,0-2-1.859-2-3s0.594-3,2-3s2,1.859,2,3
		S19.406,18,18,18z"/>
    </symbol>

</svg>
